<?xml version="1.0" encoding="utf-8"?><!-- Uploaded to: SVG Repo, www.svgrepo.com, Generator: SVG Repo Mixer Tools -->
<svg fill="#000000" width="800px" height="800px" viewBox="0 0 24 24" id="agenda-pencil-left" data-name="Flat Line" xmlns="http://www.w3.org/2000/svg" class="icon flat-line"><path id="secondary" d="M3.29,9.09,8.2,14H11V11.2L6.09,6.29a1,1,0,0,0-1.4,0l-1.4,1.4A1,1,0,0,0,3.29,9.09Z" style="fill: rgb(44, 169, 188); stroke-width: 2;"></path><path id="primary" d="M9,3H19a1,1,0,0,1,1,1V20a1,1,0,0,1-1,1H7a1,1,0,0,1-1-1V18" style="fill: none; stroke: rgb(0, 0, 0); stroke-linecap: round; stroke-linejoin: round; stroke-width: 2;"></path><path id="primary-2" data-name="primary" d="M3.29,7.69l1.4-1.4a1,1,0,0,1,1.4,0L11,11.2V14H8.2L3.29,9.09A1,1,0,0,1,3.29,7.69ZM19,8h2m-2,4h2m-2,4h2" style="fill: none; stroke: rgb(0, 0, 0); stroke-linecap: round; stroke-linejoin: round; stroke-width: 2;"></path></svg>